<svg width="11" height="10" viewBox="0 0 11 10" fill="none" xmlns="http://www.w3.org/2000/svg">
<path d="M4 1.5H1.66667C1.44444 1.5 1 1.63333 1 2.16667C1 2.7 1 6.83333 1 8.83333C1 9.05556 1.13333 9.5 1.66667 9.5H8C8.33333 9.5 9 9.36667 9 8.83333V6.5" stroke="#847E7E" stroke-linecap="round"/>
<path fill-rule="evenodd" clip-rule="evenodd" d="M6.5 0L10 0C10.2761 0 10.5 0.223858 10.5 0.5V4C10.5 4.27614 10.2761 4.5 10 4.5C9.72386 4.5 9.5 4.27614 9.5 4V1.70711L5.35355 5.85355C5.15829 6.04882 4.84171 6.04882 4.64645 5.85355C4.45118 5.65829 4.45118 5.34171 4.64645 5.14645L8.79289 1H6.5C6.22386 1 6 0.776142 6 0.5C6 0.223858 6.22386 0 6.5 0Z" fill="#847E7E"/>
</svg>
