<svg width="62" height="41" viewBox="0 0 62 41" fill="none" xmlns="http://www.w3.org/2000/svg">
<path d="M25.1365 17.7331V3.20172C25.2763 2.46781 25.8914 1 27.2334 1H58.2671C58.9661 1 60.364 1.44034 60.364 3.20172V27.861C60.364 28.5949 59.9446 30.0627 58.2671 30.0627H31.0077" stroke="#847E7E" stroke-width="1.5" stroke-linecap="round"/>
<path d="M1 40V35.5C1 33.5 1.5 29.4999 7 29.4999H12C13.3333 29.4999 16 30 20 26.9999L32 17.5C32.8333 17 34.5 16.5 35.5 18C35.8333 18.5 36 20 35 21L26 28.5C24.6667 29.5 22 32.2999 22 35.5V40M6.5 35V40" stroke="#847E7E" stroke-width="1.5" stroke-linecap="round"/>
<circle cx="12" cy="20" r="5.25" stroke="#847E7E" stroke-width="1.5"/>
</svg>
