<svg width="42" height="35" viewBox="0 0 42 35" fill="none" xmlns="http://www.w3.org/2000/svg">
<path d="M33 18C33 11.3832 27.6168 6 21 6C14.3832 6 9 11.3832 9 18C9 24.6168 14.3832 30 21 30C27.6168 30 33 24.6168 33 18ZM10.2632 18C10.2632 12.0797 15.0797 7.26316 21 7.26316C26.9203 7.26316 31.7368 12.0797 31.7368 18C31.7368 23.9203 26.9203 28.7368 21 28.7368C15.0797 28.7368 10.2632 23.9203 10.2632 18Z" fill="#847E7E"/>
<path d="M33 18C33 11.3832 27.6168 6 21 6C14.3832 6 9 11.3832 9 18C9 24.6168 14.3832 30 21 30C27.6168 30 33 24.6168 33 18ZM10.2632 18C10.2632 12.0797 15.0797 7.26316 21 7.26316C26.9203 7.26316 31.7368 12.0797 31.7368 18C31.7368 23.9203 26.9203 28.7368 21 28.7368C15.0797 28.7368 10.2632 23.9203 10.2632 18Z" stroke="#847E7E"/>
<path d="M5.34708 23.909H6.49772C6.8716 23.909 7.17457 23.6116 7.17457 23.2449V15.0683C7.17457 7.53492 13.3482 1.37132 20.9367 1.32854L21.0185 1.32827C24.6952 1.32827 28.1569 2.73119 30.7732 5.28361C33.4093 7.85529 34.861 11.2747 34.861 14.9115V25.468C34.861 29.0415 32.0948 31.9919 28.5534 32.3684V31.6793C28.5534 31.3126 28.2504 31.0152 27.8765 31.0152H24.7178C23.5982 31.0152 22.6873 31.909 22.6873 33.0076C22.6873 34.1062 23.5982 35 24.7178 35H27.8765C28.2504 35 28.5534 34.7026 28.5534 34.3359V33.7024C32.8426 33.3207 36.2147 29.7743 36.2147 25.468V23.909H36.6529C39.6013 23.909 42 21.5553 42 18.6623C42 15.7693 39.6013 13.4156 36.6529 13.4156H36.1393C35.7925 9.9877 34.2568 6.80914 31.7275 4.34172C28.8555 1.53987 25.0557 0 21.0187 0C20.9888 0 20.9589 0 20.9291 0.000270166C13.1614 0.0441022 6.7453 5.92399 5.91318 13.4156H5.34707C2.39874 13.4156 0 15.7693 0 18.6623C0 21.5553 2.39874 23.909 5.34708 23.909ZM27.1997 33.6719H24.7178C24.3446 33.6719 24.041 33.3739 24.041 33.0077C24.041 32.6415 24.3446 32.3436 24.7178 32.3436H27.1997V33.6719ZM36.6529 14.7439C38.855 14.7439 40.6463 16.5017 40.6463 18.6623C40.6463 20.8229 38.855 22.5807 36.6529 22.5807H36.2147V14.9116C36.2147 14.8754 36.2141 14.8393 36.2135 14.8032C36.2131 14.7834 36.2128 14.7637 36.2126 14.7439L36.6529 14.7439ZM5.34708 14.7439H5.82087V22.5807H5.34708C3.14503 22.5807 1.3537 20.8229 1.3537 18.6623C1.3537 16.5017 3.14503 14.7439 5.34708 14.7439Z" fill="#847E7E"/>
<path d="M5.34708 23.909H6.49772C6.8716 23.909 7.17457 23.6116 7.17457 23.2449V15.0683C7.17457 7.53492 13.3482 1.37132 20.9367 1.32854L21.0185 1.32827C24.6952 1.32827 28.1569 2.73119 30.7732 5.28361C33.4093 7.85529 34.861 11.2747 34.861 14.9115V25.468C34.861 29.0415 32.0948 31.9919 28.5534 32.3684V31.6793C28.5534 31.3126 28.2504 31.0152 27.8765 31.0152H24.7178C23.5982 31.0152 22.6873 31.909 22.6873 33.0076C22.6873 34.1062 23.5982 35 24.7178 35H27.8765C28.2504 35 28.5534 34.7026 28.5534 34.3359V33.7024C32.8426 33.3207 36.2147 29.7743 36.2147 25.468V23.909H36.6529C39.6013 23.909 42 21.5553 42 18.6623C42 15.7693 39.6013 13.4156 36.6529 13.4156H36.1393C35.7925 9.9877 34.2568 6.80914 31.7275 4.34172C28.8555 1.53987 25.0557 0 21.0187 0C20.9888 0 20.9589 0 20.9291 0.000270166C13.1614 0.0441022 6.7453 5.92399 5.91318 13.4156H5.34707C2.39874 13.4156 0 15.7693 0 18.6623C0 21.5553 2.39874 23.909 5.34708 23.909ZM27.1997 33.6719H24.7178C24.3446 33.6719 24.041 33.3739 24.041 33.0077C24.041 32.6415 24.3446 32.3436 24.7178 32.3436H27.1997V33.6719ZM36.6529 14.7439C38.855 14.7439 40.6463 16.5017 40.6463 18.6623C40.6463 20.8229 38.855 22.5807 36.6529 22.5807H36.2147V14.9116C36.2147 14.8754 36.2141 14.8393 36.2135 14.8032C36.2131 14.7834 36.2128 14.7637 36.2126 14.7439L36.6529 14.7439ZM5.34708 14.7439H5.82087V22.5807H5.34708C3.14503 22.5807 1.3537 20.8229 1.3537 18.6623C1.3537 16.5017 3.14503 14.7439 5.34708 14.7439Z" stroke="#847E7E"/>
</svg>
