<svg width="41" height="39" viewBox="0 0 41 39" fill="none" xmlns="http://www.w3.org/2000/svg">
<path d="M29.2019 15.3949H23.3397V9.67035L29.2019 15.3949Z" stroke="#847E7E" stroke-width="1.2" stroke-linecap="round" stroke-linejoin="round"/>
<path d="M40 6.72456V29.6586H34.6009V11.0776H28.7509V5.34113H16.5756V1H34.1378L40 6.72456Z" stroke="#847E7E" stroke-width="1.2" stroke-linecap="round" stroke-linejoin="round"/>
<path d="M40 6.73649H34.15V1L40 6.73649Z" stroke="#847E7E" stroke-width="1.2" stroke-linecap="round" stroke-linejoin="round"/>
<path d="M34.601 11.0776V33.9878H29.2019V15.3949L23.3397 9.67032H11.1766V5.34113H28.751V11.0776H34.601Z" stroke="#847E7E" stroke-width="1.2" stroke-linecap="round" stroke-linejoin="round"/>
<path d="M29.2019 15.3948H23.3398V9.67029L29.2019 15.3948Z" stroke="#847E7E" stroke-width="1.2" stroke-linecap="round" stroke-linejoin="round"/>
<path d="M34.601 11.0776H28.751V5.34113L34.601 11.0776Z" stroke="#847E7E" stroke-width="1.2" stroke-linecap="round" stroke-linejoin="round"/>
<path d="M34.601 11.0776H28.751V5.34113L34.601 11.0776Z" stroke="#847E7E" stroke-width="1.2" stroke-linecap="round" stroke-linejoin="round"/>
<path d="M29.2017 15.3948V38.305H5.7774V28.7164C6.19178 28.7999 6.60615 28.8476 7.0449 28.8476C10.3843 28.8476 13.0899 26.2119 13.0899 22.9322C13.0899 19.6525 10.3843 17.0168 7.0449 17.0168C6.61834 17.0168 6.19178 17.0645 5.7774 17.148V9.67029H23.3396V15.3948H29.1895H29.2017Z" stroke="#847E7E" stroke-width="1.2" stroke-linecap="round" stroke-linejoin="round"/>
<path d="M29.2019 15.3948H23.3397V9.67029L29.2019 15.3948Z" stroke="#847E7E" stroke-width="1.2" stroke-linecap="round" stroke-linejoin="round"/>
<path d="M29.2019 15.3948H23.3397V9.67029L29.2019 15.3948Z" stroke="#847E7E" stroke-width="1.2" stroke-linecap="round" stroke-linejoin="round"/>
<path d="M13.09 22.9322C13.09 25.2936 11.6884 27.3211 9.65311 28.2751C8.86092 28.6449 7.98342 28.8476 7.04499 28.8476C6.61842 28.8476 6.19186 28.7999 5.77749 28.7164C3.0475 28.144 1 25.7826 1 22.9322C1 20.0819 3.05968 17.7086 5.77749 17.148C6.19186 17.0645 6.60624 17.0168 7.04499 17.0168C10.3844 17.0168 13.09 19.6645 13.09 22.9322Z" stroke="#847E7E" stroke-width="1.2" stroke-linecap="round" stroke-linejoin="round"/>
<path d="M13.09 33.0814L10.0066 28.0963" stroke="#847E7E" stroke-width="1.2" stroke-linecap="round" stroke-linejoin="round"/>
</svg>
