<svg width="70" height="32" viewBox="0 0 70 32" fill="none" xmlns="http://www.w3.org/2000/svg">
<path d="M27.6409 30.9999V25.6453C27.6409 23.2655 28.2358 18.5058 34.7804 18.5058H40.7299C42.3165 18.5058 45.4896 19.1008 50.2492 15.531L64.5282 4.22692C65.5198 3.63196 67.503 3.03699 68.6929 4.82189C69.0896 5.41685 69.2879 7.20172 68.098 8.39158L57.3887 17.3159C55.8022 18.5058 52.6291 21.8376 52.6291 25.6453V30.9999M34.1854 25.0504V31" stroke="#847E7E" stroke-width="1.5" stroke-linecap="round"/>
<circle cx="40.7299" cy="7.20174" r="6.38949" stroke="#847E7E" stroke-width="1.5"/>
<circle cx="11.8634" cy="12.6444" r="5.61824" stroke="#847E7E" stroke-width="1.5"/>
<path d="M21.9777 31C21.9777 25.2072 17.2817 20.5112 11.4889 20.5112C5.69603 20.5112 1 25.2072 1 31" stroke="#847E7E" stroke-width="1.5"/>
</svg>
