<svg width="58" height="40" viewBox="0 0 58 40" fill="none" xmlns="http://www.w3.org/2000/svg">
<path d="M17.451 21.7297C17.5837 21.7297 17.7126 21.6602 17.7826 21.5364C17.886 21.3534 17.8215 21.1213 17.6386 21.0178L2.77925 12.6191C1.60683 11.9564 0.856061 10.7812 0.77094 9.47548C0.669242 7.91587 1.37056 6.67496 1.98932 5.58002L1.98955 5.57965C1.9991 5.56275 2.00576 5.54505 2.01246 5.52745L19.0038 15.1312C19.063 15.1646 19.1273 15.1805 19.1907 15.1805C19.3235 15.1805 19.4523 15.1109 19.5223 14.9872C19.6258 14.8042 19.5613 14.572 19.3783 14.4686L0.994873 4.07806C2.19286 2.13992 3.68741 1.2753 4.75636 0.891975C5.36385 0.67419 6.03239 0.730114 6.59057 1.04564L24.6374 11.246C24.6966 11.2794 24.7608 11.2953 24.8242 11.2953C24.957 11.2953 25.0859 11.2257 25.1559 11.102C25.2593 10.919 25.1948 10.6868 25.0119 10.5834L6.96504 0.383063C6.21413 -0.0413319 5.31547 -0.116998 4.49951 0.175617C3.25031 0.623575 1.47948 1.65597 0.137328 4.03052C0.0339064 4.21352 0.0984 4.44565 0.281355 4.54907L1.3599 5.15865C1.34816 5.1736 1.33638 5.18855 1.32674 5.20564C0.688893 6.33433 -0.104951 7.73902 0.0114618 9.52503C0.113393 11.0879 1.00805 12.4923 2.40477 13.2818L17.2641 21.6805C17.3232 21.7138 17.3875 21.7297 17.451 21.7297Z" fill="#847E7E"/>
<path d="M55.8358 28.0055L31.9464 14.5029C31.7635 14.3996 31.5314 14.464 31.4279 14.6469C31.3245 14.8299 31.389 15.0621 31.572 15.1655L52.724 27.1209C52.2279 27.1895 51.7172 27.3494 51.2051 27.6014C49.9851 28.2016 48.863 29.2781 48.0152 30.6546L30.8842 20.9718C30.7012 20.8685 30.4691 20.9329 30.3657 21.1158C30.2622 21.2988 30.3267 21.531 30.5097 21.6344L47.9658 31.5008C48.025 31.5342 48.0893 31.5502 48.1527 31.5502C48.2854 31.5502 48.4143 31.4806 48.4843 31.3568C49.2763 29.9556 50.3619 28.8644 51.541 28.2842C52.3475 27.8874 53.1385 27.7601 53.8397 27.9018C52.3498 28.3835 50.6767 29.9208 49.4316 32.1237C48.1377 34.4129 47.6976 36.7275 48.1334 38.2538L26.5954 26.0802C26.4124 25.9769 26.1802 26.0413 26.0769 26.2243C25.9734 26.4073 26.0379 26.6394 26.2209 26.7428L49.2064 39.7345C49.5243 39.9142 49.8785 40 50.2567 40C51.939 40 54.093 38.3012 55.6106 35.6162C57.4693 32.3278 57.5683 28.9848 55.8358 28.0055ZM49.5809 39.0721C48.8983 38.6863 48.9652 36.7925 50.1525 34.6919C51.1757 32.8815 52.4964 31.8634 53.2788 31.8634C53.4043 31.8634 53.516 31.8897 53.6104 31.943C53.942 32.1304 54.0943 32.672 54.0283 33.4288C53.9521 34.301 53.6007 35.329 53.0388 36.3232C51.8514 38.4239 50.2635 39.4581 49.5809 39.0721ZM54.9481 35.2418C54.3681 36.2679 53.6736 37.1518 52.9614 37.8266C53.2201 37.4845 53.4693 37.1082 53.7013 36.6977C54.3157 35.6107 54.701 34.4733 54.7864 33.495C54.8809 32.4125 54.5962 31.626 53.9848 31.2805C52.7845 30.6022 50.852 31.9076 49.4899 34.3174C49.259 34.7259 49.0647 35.1318 48.9054 35.5279C49.1167 34.5713 49.5153 33.5225 50.0941 32.4984C51.4397 30.1179 53.4008 28.4971 54.7708 28.4971C55.0234 28.4971 55.2561 28.5523 55.461 28.668L55.4613 28.6682C56.7769 29.4117 56.5418 32.4221 54.9481 35.2418Z" fill="#847E7E"/>
<path d="M26.3933 23.6736L27.3075 23.9622C27.7553 24.1037 28.2275 24.0231 28.6031 23.7413C28.9787 23.4595 29.1881 23.0286 29.1777 22.5592L29.1562 21.6007C29.1504 21.341 29.29 21.1052 29.5204 20.9853L30.3709 20.543C30.7876 20.3264 31.0645 19.9355 31.1309 19.4706C31.1972 19.0058 31.0406 18.553 30.7012 18.2285L30.0083 17.566C29.8563 17.4206 29.7798 17.2092 29.8037 17.0004C29.8275 16.7916 29.6776 16.603 29.4687 16.5791C29.2599 16.5556 29.0714 16.7052 29.0475 16.9141C28.9969 17.3579 29.1594 17.8073 29.4824 18.116L30.1752 18.7786C30.335 18.9313 30.4087 19.1443 30.3775 19.3631C30.3463 19.5819 30.2159 19.7659 30.0198 19.8678L29.1693 20.3101C28.6795 20.5648 28.3829 21.0659 28.3953 21.6177L28.4167 22.5762C28.4217 22.7971 28.3231 22.9999 28.1464 23.1325C27.9696 23.2652 27.7474 23.3031 27.5367 23.2365L26.6225 22.9478C26.0961 22.7816 25.5321 22.9262 25.1506 23.3252L24.488 24.018C24.3353 24.1778 24.1223 24.2515 23.9035 24.2203C23.6847 24.1891 23.5008 24.0587 23.3988 23.8626L22.9565 23.0121C22.7019 22.5223 22.2013 22.2255 21.6489 22.2381L20.6905 22.2596C20.4696 22.2647 20.2668 22.166 20.1341 21.9892C20.0015 21.8124 19.9636 21.5901 20.0302 21.3794L20.3188 20.4653C20.4851 19.9389 20.3405 19.3748 19.9415 18.9933L19.2487 18.3309C19.2393 18.3219 19.2302 18.3127 19.2214 18.3034C19.0775 18.1502 18.8367 18.1426 18.6835 18.2864C18.5302 18.4302 18.5227 18.6711 18.6665 18.8243C18.6845 18.8435 18.7031 18.8623 18.7226 18.8809L19.4155 19.5434C19.6032 19.723 19.6713 19.9884 19.593 20.2361L19.4629 20.6481C19.4393 20.6624 19.4168 20.6789 19.3961 20.6987L13.0294 26.8116C12.9208 26.9159 12.8838 27.0744 12.9352 27.2159C12.9865 27.3574 13.1164 27.4554 13.2666 27.4657L15.5703 27.6254L15.9239 29.9075C15.947 30.0562 16.0555 30.1774 16.2008 30.2166C16.2337 30.2255 16.2669 30.2297 16.3 30.2297C16.413 30.2297 16.5223 30.1792 16.5956 30.0887L18.9112 27.2305C19.0435 27.0672 19.0184 26.8276 18.8551 26.6953C18.6918 26.563 18.4522 26.5881 18.3199 26.7514L16.5446 28.9427L16.2759 27.2085C16.2487 27.0329 16.1035 26.8995 15.9262 26.8871L14.1759 26.7658L19.2682 21.8766C19.3105 22.0788 19.3955 22.2728 19.5253 22.4458C19.8072 22.8215 20.2375 23.0304 20.7075 23.0203L21.3544 23.0058L19.1261 25.7562C18.9939 25.9195 19.019 26.1591 19.1823 26.2915C19.2528 26.3485 19.3375 26.3763 19.4216 26.3763C19.5324 26.3763 19.6423 26.3281 19.7175 26.2353L20.944 24.7214L17.8257 32.974C17.7724 33.1148 17.8073 33.2738 17.9145 33.3795C18.0217 33.4852 18.1811 33.5178 18.3211 33.4626L21.1058 32.3657L22.7913 34.839C22.863 34.9441 22.9813 35.0052 23.1057 35.0052C23.1284 35.0052 23.1513 35.0032 23.1742 34.999C23.3223 34.9719 23.4405 34.8602 23.4757 34.7138L24.6695 29.7593C24.7187 29.555 24.5929 29.3494 24.3886 29.3002C24.1842 29.2511 23.9788 29.3767 23.9295 29.581L22.9368 33.7011L21.5636 31.686C21.4634 31.5391 21.275 31.4811 21.1096 31.5462L18.8411 32.4398L22.2748 23.3526C22.2768 23.3563 22.2794 23.3595 22.2813 23.3632L22.7236 24.2137C22.9402 24.6304 23.3311 24.9074 23.796 24.9737C23.8661 24.9837 23.9359 24.9887 24.0051 24.9887C24.3945 24.9886 24.7626 24.8322 25.0382 24.544L25.1786 24.3971L24.2761 28.1429C24.2269 28.3473 24.3526 28.5528 24.5569 28.602C24.5868 28.6092 24.6168 28.6127 24.6464 28.6127C24.8181 28.6127 24.974 28.4955 25.016 28.3212L26.1428 23.6445C26.2258 23.639 26.3105 23.6473 26.3933 23.6736Z" fill="#847E7E"/>
<path d="M23.9792 15.9167C23.2746 16.1125 22.6883 16.5708 22.3285 17.2075C21.5857 18.5217 22.0506 20.1953 23.3648 20.9381C23.7816 21.1735 24.2418 21.2936 24.7078 21.2936C24.9537 21.2936 25.2013 21.2602 25.4447 21.1925C26.1494 20.9968 26.7355 20.5384 27.0954 19.9018C27.8382 18.5875 27.3733 16.914 26.0591 16.1712C25.4224 15.8115 24.6838 15.7211 23.9792 15.9167ZM26.4328 19.5273C26.173 19.987 25.7497 20.318 25.241 20.4593C24.7323 20.6006 24.199 20.5353 23.7393 20.2755C22.7904 19.7392 22.4547 18.5309 22.9911 17.5821C23.3541 16.9396 24.0252 16.5783 24.7152 16.5783C25.0445 16.5783 25.3781 16.6606 25.6846 16.8338C26.6334 17.3701 26.9691 18.5785 26.4328 19.5273Z" fill="#847E7E"/>
<path d="M25.027 12.1534C25.0111 12.1644 24.9974 12.1773 24.9837 12.1901C24.7605 12.2619 24.5554 12.3879 24.3858 12.5653L23.7232 13.2582C23.5437 13.446 23.2782 13.5141 23.0305 13.4358L22.1164 13.1471C21.6686 13.0057 21.1964 13.0862 20.8207 13.3681C20.4451 13.6499 20.2357 14.0807 20.2462 14.5502L20.2677 15.5086C20.2735 15.7683 20.134 16.0041 19.9035 16.124L19.1953 16.4923C19.0088 16.5892 18.9363 16.819 19.0332 17.0054C19.101 17.1358 19.2337 17.2105 19.3711 17.2105C19.4303 17.2105 19.4903 17.1967 19.5464 17.1675L20.2546 16.7992C20.7444 16.5445 21.041 16.0434 21.0286 15.4916L21.0072 14.5331C21.0022 14.3122 21.1007 14.1094 21.2775 13.9769C21.4543 13.8442 21.6765 13.8064 21.8873 13.8729L22.8014 14.1615C23.3277 14.3277 23.8918 14.1832 24.2733 13.7842L24.9359 13.0913C25.0886 12.9316 25.3016 12.8578 25.5204 12.8891C25.7392 12.9203 25.9231 13.0507 26.0251 13.2468L26.4674 14.0973C26.722 14.587 27.2232 14.8847 27.7751 14.8713L28.7335 14.8498C28.955 14.8459 29.1572 14.9434 29.2898 15.1202C29.4224 15.2969 29.4603 15.5192 29.3938 15.73L29.3581 15.8428C29.2948 16.0431 29.406 16.2569 29.6064 16.3202C29.8067 16.3835 30.0206 16.2723 30.0838 16.0719L30.1195 15.9591C30.1722 15.7922 30.1939 15.6219 30.186 15.4545C30.5253 15.1821 30.8056 14.8117 30.9686 14.5234L30.9785 14.5056C31.3168 13.8928 31.2149 13.1335 30.7247 12.6161C30.3771 12.2492 29.7935 11.7162 28.9871 11.2604C27.2537 10.2807 26.2818 10.352 26.1767 10.3634C26.0014 10.3823 25.862 10.5193 25.84 10.6943C25.8396 10.6982 25.7852 11.0919 25.557 11.4955C25.4113 11.7533 25.2855 11.976 25.027 12.1534ZM26.2196 11.87C26.3719 11.6005 26.4651 11.3361 26.5205 11.1361C26.8786 11.1811 27.5897 11.3448 28.6127 11.923C29.3368 12.3323 29.8605 12.8104 30.1723 13.1395C30.4294 13.4109 30.4869 13.8214 30.3059 14.1492C30.2127 14.3139 30.0708 14.5092 29.9086 14.6785C29.905 14.6736 29.9023 14.6683 29.8986 14.6634C29.6168 14.2878 29.1855 14.078 28.7165 14.0889L27.7581 14.1104C27.4987 14.1174 27.2626 13.9766 27.1426 13.7461L26.7004 12.8956C26.5436 12.5942 26.2948 12.3673 25.9936 12.2389C26.0825 12.111 26.1547 11.9848 26.2196 11.87Z" fill="#847E7E"/>
</svg>
